<svg xmlns="http://www.w3.org/2000/svg" xmlns:xlink="http://www.w3.org/1999/xlink" width="1200" zoomAndPan="magnify" viewBox="0 0 900 225" height="300" preserveAspectRatio="xMidYMid meet" version="1.0"><defs><clipPath id="87a4749dac"><path d="M 377 5.285156 L 427 5.285156 L 427 62 L 377 62 Z M 377 5.285156 " clip-rule="nonzero"/></clipPath><clipPath id="6fbfff2653"><path d="M 466 112 L 560 112 L 560 219.785156 L 466 219.785156 Z M 466 112 " clip-rule="nonzero"/></clipPath><clipPath id="a9c16f946e"><path d="M 336.09375 76 L 432 76 L 432 185 L 336.09375 185 Z M 336.09375 76 " clip-rule="nonzero"/></clipPath><clipPath id="ef58c2b817"><path d="M 419 5.285156 L 534 5.285156 L 534 80 L 419 80 Z M 419 5.285156 " clip-rule="nonzero"/></clipPath></defs><rect x="-90" width="1080" fill="#ffffff" y="-22.5" height="270" fill-opacity="1"/><rect x="-90" width="1080" fill="#318216" y="-22.5" height="270" fill-opacity="1"/><path fill="#009748" d="M 379.660156 184.492188 C 379.753906 184.652344 386.867188 198.882812 442.988281 194.589844 C 435.699219 185.636719 429.023438 177.433594 426.078125 166.15625 C 427.023438 163.792969 428.136719 161.597656 429.390625 159.53125 C 418.289062 154.769531 413.484375 149.59375 408.847656 144.71875 C 398.753906 144.105469 390.9375 141.769531 387.5 137.007812 C 375.597656 146.851562 375.714844 173.753906 379.660156 184.492188 " fill-opacity="1" fill-rule="evenodd"/><path fill="#006b30" d="M 426.480469 165.609375 C 420.59375 163.066406 408.539062 157.796875 401.503906 143.859375 C 403.808594 144.414062 406.175781 144.570312 407.882812 144.492188 C 407.882812 144.492188 418.140625 156.113281 429.8125 159.9375 L 426.480469 165.609375 " fill-opacity="1" fill-rule="evenodd"/><path fill="#006b30" d="M 379.660156 184.492188 C 384.078125 192.140625 399.746094 193.644531 407.8125 194.492188 C 397.59375 178.9375 390.101562 158.949219 394.738281 141.957031 C 392.855469 141.167969 391.652344 140.386719 390.808594 139.871094 C 377.617188 157.34375 375.714844 173.753906 379.660156 184.492188 " fill-opacity="1" fill-rule="evenodd"/><path fill="#009748" d="M 419.609375 6.433594 C 419.429688 6.433594 403.542969 5.480469 379.199219 56.207031 C 390.601562 54.371094 401.046875 52.691406 412.292969 55.785156 C 413.660156 57.511719 414.851562 59.296875 415.898438 61.121094 C 422.386719 56.445312 429.21875 51.863281 440.945312 49.453125 C 446.089844 42.222656 451.503906 37.507812 456.835938 36.964844 C 454.257812 21.738281 430.890625 8.386719 419.609375 6.433594 " fill-opacity="1" fill-rule="evenodd"/><path fill="#006b30" d="M 413.289062 56.601562 C 413.289062 56.601562 427.6875 44.753906 444.710938 44.4375 C 444.710938 44.4375 442.324219 46.980469 441.132812 49.367188 C 441.132812 49.367188 424.902344 52.945312 415.757812 61.136719 L 413.289062 56.601562 " fill-opacity="1" fill-rule="evenodd"/><path fill="#006b30" d="M 419.609375 6.433594 C 410.773438 6.433594 401.644531 19.246094 396.875 25.804688 C 415.460938 24.734375 436.523438 28.246094 448.925781 40.753906 C 450.554688 39.519531 451.832031 38.867188 452.699219 38.394531 C 444.15625 18.242188 430.890625 8.386719 419.609375 6.433594 " fill-opacity="1" fill-rule="evenodd"/><path fill="#009748" d="M 558.832031 113.960938 C 558.878906 113.785156 563.910156 98.691406 521.191406 62.066406 C 520.015625 73.546875 518.933594 84.070312 513.03125 94.121094 C 511.785156 94.65625 510.539062 95.128906 509.289062 95.535156 C 510.9375 102.582031 511.324219 112.136719 508.597656 119.851562 C 516.183594 128.007812 520.699219 135.796875 519.691406 142 C 535.070312 143.449219 554.023438 124.34375 558.832031 113.960938 " fill-opacity="1" fill-rule="evenodd"/><path fill="#006b30" d="M 514.128906 92.027344 C 515.476562 96.714844 519.71875 109.460938 513.148438 125.15625 C 511.914062 123.441406 510.546875 121.429688 508.84375 120.371094 C 509.679688 116.503906 511.519531 107.300781 509.539062 95.316406 L 513.394531 94.296875 L 514.128906 92.027344 " fill-opacity="1" fill-rule="evenodd"/><path fill="#006b30" d="M 558.832031 113.960938 C 561.117188 105.429688 551.101562 93.296875 546 86.996094 C 542.222656 105.214844 533.375 124.644531 518.078125 133.382812 C 518.847656 135.273438 519.148438 136.675781 519.378906 137.636719 C 541.066406 134.605469 554.023438 124.34375 558.832031 113.960938 " fill-opacity="1" fill-rule="evenodd"/><path fill="#05a1e6" d="M 452.425781 48.449219 C 454.140625 48.449219 455.835938 48.523438 457.515625 48.671875 C 459.019531 52.5625 460.496094 56.8125 461.929688 61.453125 C 455.296875 64.210938 446.285156 69.03125 438.699219 75.445312 C 460.546875 75.023438 479.773438 74.078125 502.097656 78.902344 C 502.273438 78.359375 502.453125 77.820312 502.636719 77.28125 C 507.652344 85.871094 510.53125 95.863281 510.53125 106.523438 C 510.53125 119.136719 506.507812 130.808594 499.675781 140.332031 C 498.0625 140.429688 496.410156 140.511719 494.710938 140.574219 C 493.761719 133.464844 491.433594 123.511719 487.195312 114.527344 C 483.203125 130.664062 479.894531 145.414062 473.9375 160.488281 C 467.285156 163.144531 460.027344 164.605469 452.425781 164.605469 C 428.234375 164.605469 407.496094 149.820312 398.75 128.800781 C 400.996094 126.085938 403.460938 123.277344 406.175781 120.355469 C 411.875 124.714844 420.5625 130.109375 429.910156 133.464844 C 418.863281 115.167969 408.640625 99.289062 401.664062 78.25 C 411.601562 60.472656 430.609375 48.449219 452.425781 48.449219 " fill-opacity="1" fill-rule="evenodd"/><path fill="#115fa2" d="M 473.9375 160.488281 C 467.285156 163.144531 460.027344 164.605469 452.425781 164.605469 C 428.234375 164.605469 407.496094 149.816406 398.75 128.796875 C 399.289062 128.152344 399.835938 127.5 400.398438 126.839844 C 411.398438 135.058594 425.050781 139.925781 439.839844 139.925781 C 457.539062 139.925781 473.605469 132.957031 485.457031 121.617188 C 482.164062 135.042969 479.015625 147.648438 473.9375 160.488281 Z M 505.292969 82.390625 C 508.65625 89.742188 510.53125 97.914062 510.53125 106.523438 C 510.53125 119.136719 506.507812 130.808594 499.675781 140.332031 C 498.0625 140.429688 496.410156 140.511719 494.710938 140.574219 C 493.886719 134.414062 492.03125 126.128906 488.800781 118.183594 C 497.605469 108.449219 503.546875 96.074219 505.292969 82.390625 " fill-opacity="1" fill-rule="evenodd"/><path fill="#fddf4c" d="M 416.164062 77.988281 C 416.164062 77.988281 416.363281 72.519531 417.320312 72.042969 C 418.273438 71.5625 418.3125 72.480469 418.59375 74.152344 C 418.871094 75.832031 419.546875 81.535156 420.542969 82.8125 C 421.539062 84.089844 421.378906 86.207031 420.582031 87.121094 C 419.785156 88.039062 420.382812 89.15625 422.457031 89.238281 C 424.523438 89.316406 425.398438 90.433594 426.035156 91.308594 C 426.671875 92.1875 430.253906 92.269531 430.253906 92.269531 C 430.253906 92.269531 432.363281 89.875 430.8125 87.640625 C 429.257812 85.40625 428.980469 85.167969 428.78125 83.570312 C 428.582031 81.976562 429.976562 80.578125 430.769531 78.902344 C 431.566406 77.226562 436.566406 68.433594 437.125 65.808594 C 437.679688 63.1875 434.738281 54.757812 430.839844 54.757812 C 426.941406 54.757812 421.179688 58.875 421.179688 58.875 C 421.179688 58.875 419.625 60.949219 418.433594 61.949219 C 417.238281 62.945312 414.773438 64.417969 413.578125 66.453125 C 412.382812 68.488281 413.738281 69.484375 414.335938 71.082031 C 414.933594 72.675781 412.542969 76.832031 414.136719 79.382812 C 415.726562 81.933594 416.203125 81.535156 416.203125 81.535156 L 416.164062 77.988281 " fill-opacity="1" fill-rule="evenodd"/><path fill="#fddf4c" d="M 465.832031 160.414062 C 465.832031 160.414062 463.328125 161.769531 460.859375 163.007812 C 458.394531 164.246094 455.25 163.527344 455.25 163.527344 C 455.25 163.527344 456.921875 160.09375 457.675781 159.339844 C 458.433594 158.578125 459.785156 158.019531 459.984375 155.867188 C 460.183594 153.714844 459.863281 153.351562 460.898438 151.59375 C 461.933594 149.839844 463.929688 146.109375 463.929688 144.679688 C 463.929688 143.25 463.882812 141.023438 461.636719 139.605469 C 459.386719 138.191406 456.242188 137.355469 454.53125 133.839844 C 452.820312 130.328125 453.496094 128.734375 451.703125 126.460938 C 449.914062 124.1875 447.847656 122.910156 448.921875 121.949219 C 449.996094 120.996094 451.109375 120.675781 451.109375 120.675781 C 451.109375 120.675781 449.59375 119.878906 449.914062 118.722656 C 450.234375 117.5625 451.386719 116.207031 451.90625 114.8125 C 452.421875 113.414062 453.140625 112.296875 454.492188 112.457031 C 455.84375 112.617188 456.042969 112.734375 456.003906 111.898438 C 455.964844 111.0625 456.042969 106.191406 454.972656 104.914062 C 453.894531 103.640625 454.8125 102.28125 455.605469 103.082031 C 456.402344 103.878906 456.5625 104.636719 457.316406 103.402344 C 458.074219 102.160156 459.664062 100.25 460.703125 99.8125 C 461.738281 99.371094 465.675781 97.777344 466.273438 98.515625 C 466.871094 99.25 470.648438 101.863281 472.125 101.722656 C 473.597656 101.585938 476.324219 100.46875 476.324219 100.46875 C 476.324219 100.46875 477.257812 100.390625 477.972656 101.984375 C 478.691406 103.578125 479.765625 103.5 480.820312 104.238281 C 481.875 104.976562 482.609375 106.550781 483.625 106.992188 C 484.640625 107.429688 489.238281 107.710938 490.152344 108.746094 C 491.066406 109.785156 490.867188 112.894531 490.867188 113.933594 C 490.867188 114.972656 491.664062 115.609375 493.296875 115.726562 C 494.925781 115.851562 496.398438 116.367188 496.679688 117.882812 C 496.957031 119.398438 499.824219 117.964844 500.578125 118.761719 C 501.335938 119.558594 501.890625 120.355469 502.726562 120.636719 C 503.566406 120.917969 503.605469 121.710938 502.808594 124.507812 C 502.011719 127.296875 498.828125 131.011719 497.714844 133.125 C 496.597656 135.238281 495.683594 136.433594 494.96875 138.148438 C 494.816406 138.503906 494.675781 138.886719 494.523438 139.277344 C 493.476562 132.28125 491.179688 122.976562 487.195312 114.527344 C 483.640625 128.898438 480.628906 142.164062 475.804688 155.546875 C 474.1875 155.542969 473.417969 155.09375 473.375 156.222656 C 473.339844 157.359375 471.84375 157.703125 469.773438 158.179688 C 467.703125 158.65625 467.425781 159.734375 465.832031 160.414062 " fill-opacity="1" fill-rule="evenodd"/><path fill="#e4ac30" d="M 488.796875 118.179688 C 489.695312 117.183594 490.5625 116.164062 491.402344 115.121094 C 491.800781 115.457031 492.429688 115.664062 493.296875 115.726562 C 494.925781 115.851562 496.398438 116.367188 496.679688 117.882812 C 496.957031 119.398438 499.824219 117.964844 500.578125 118.761719 C 501.335938 119.558594 501.890625 120.355469 502.726562 120.636719 C 503.566406 120.917969 503.605469 121.710938 502.808594 124.507812 C 502.011719 127.296875 498.828125 131.011719 497.714844 133.125 C 496.597656 135.238281 495.683594 136.433594 494.96875 138.148438 C 494.816406 138.503906 494.675781 138.886719 494.523438 139.277344 C 493.625 133.277344 491.808594 125.578125 488.796875 118.179688 Z M 465.832031 160.414062 C 465.832031 160.414062 463.328125 161.769531 460.859375 163.007812 C 458.394531 164.246094 455.25 163.527344 455.25 163.527344 C 455.25 163.527344 456.921875 160.09375 457.675781 159.339844 C 458.433594 158.578125 459.785156 158.019531 459.984375 155.867188 C 460.183594 153.714844 459.863281 153.351562 460.898438 151.59375 C 461.933594 149.839844 463.929688 146.109375 463.929688 144.679688 C 463.929688 143.25 463.882812 141.023438 461.636719 139.605469 C 460.488281 138.882812 459.101562 138.308594 457.792969 137.453125 C 468.320312 134.484375 477.773438 128.96875 485.457031 121.617188 C 482.589844 133.316406 479.824219 144.390625 475.804688 155.546875 C 474.1875 155.542969 473.417969 155.09375 473.375 156.222656 C 473.339844 157.359375 471.84375 157.703125 469.773438 158.179688 C 467.703125 158.65625 467.425781 159.734375 465.832031 160.414062 " fill-opacity="1" fill-rule="evenodd"/><path fill="#8cd02f" d="M 451.191406 75.183594 C 450.308594 75.199219 449.421875 75.21875 448.539062 75.238281 C 448.617188 75.566406 448.679688 75.878906 448.71875 76.113281 C 448.878906 76.988281 449.714844 80.300781 451.109375 79.941406 C 452.265625 79.644531 451.859375 77.566406 451.191406 75.183594 Z M 418.832031 73.039062 C 418.832031 73.039062 420.902344 70.484375 421.101562 72.640625 C 421.300781 74.792969 421.179688 77.269531 422.253906 80.019531 C 423.328125 82.773438 424.921875 84.6875 425.28125 86.207031 C 425.636719 87.71875 427.230469 89.835938 428.78125 90.117188 C 430.332031 90.394531 429.695312 87.640625 428.863281 87.003906 C 428.027344 86.367188 426.273438 84.492188 427.070312 82.773438 C 427.867188 81.054688 428.34375 80.019531 427.347656 79.261719 C 426.355469 78.503906 428.625 78.304688 427.667969 76.90625 C 426.710938 75.511719 424.953125 73.359375 428.375 72.328125 C 431.792969 71.292969 432.589844 68.511719 430.839844 68.511719 C 429.089844 68.511719 430.363281 65.648438 432.429688 64.695312 C 434.496094 63.742188 432.589844 63.820312 432.429688 61.355469 C 432.269531 58.894531 430.609375 60.074219 429.9375 58.675781 C 429.257812 57.277344 429.0625 56.242188 427.785156 57.558594 C 426.515625 58.875 424.722656 59.152344 423.527344 59.3125 C 422.332031 59.472656 421.261719 60.589844 420.582031 61.507812 C 419.90625 62.425781 418.554688 63.542969 417.558594 65.136719 C 416.566406 66.734375 416.800781 67.8125 416.164062 68.765625 C 415.53125 69.726562 415.25 73.394531 415.25 74.59375 C 415.25 75.792969 415.648438 77.1875 416.003906 77.707031 L 416.085938 81.578125 C 416.085938 81.578125 414.457031 80.617188 414.136719 79.5 C 413.816406 78.386719 413.261719 76.351562 413.859375 74.113281 C 414.457031 71.882812 414.53125 70.964844 413.859375 70.046875 C 413.179688 69.128906 412.980469 66.933594 413.976562 65.617188 C 414.96875 64.300781 417.042969 63.261719 418.632812 61.707031 C 420.222656 60.152344 421.222656 59.355469 421.417969 57.757812 C 421.417969 57.757812 425.238281 54.804688 432.207031 52.050781 C 432.207031 52.050781 440.441406 49.0625 447.484375 48.902344 C 447.484375 48.902344 444.003906 50.414062 444.246094 50.992188 C 444.484375 51.574219 445.417969 52.050781 446.792969 52.050781 C 448.164062 52.050781 451.011719 51.933594 451.070312 52.351562 C 451.128906 52.769531 451.746094 55.382812 453.320312 54.984375 C 454.890625 54.585938 455.667969 54.066406 455.667969 53.070312 C 455.667969 52.070312 455.546875 50.378906 456.34375 50.378906 C 456.925781 50.378906 457.714844 50.828125 458.421875 51.074219 C 459.613281 54.296875 460.785156 57.746094 461.929688 61.453125 C 460.605469 62 459.1875 62.632812 457.703125 63.347656 C 456.816406 63.414062 456.050781 63.589844 455.902344 64.234375 C 450.695312 66.863281 444.882812 70.386719 439.652344 74.65625 C 438.035156 74.375 435.144531 74.359375 433.796875 74.914062 C 432.246094 75.550781 431.929688 76.113281 431.566406 77.027344 C 431.207031 77.945312 430.574219 79.582031 429.855469 80.539062 C 429.140625 81.496094 428.183594 82.53125 429.300781 85.207031 C 430.414062 87.878906 432.164062 89.117188 433.199219 88.917969 C 434.234375 88.714844 436.066406 88.480469 436.902344 87.800781 C 437.738281 87.121094 438.054688 86.242188 438.292969 85.523438 C 438.53125 84.804688 439.925781 83.730469 441.597656 83.648438 C 443.265625 83.570312 443.03125 84.011719 442.511719 85.648438 C 441.996094 87.28125 441.238281 88.277344 440.5625 89.195312 C 439.886719 90.117188 438.214844 93.066406 440.402344 92.507812 C 442.59375 91.949219 447.527344 90.632812 447.6875 92.429688 C 447.847656 94.222656 447.605469 95.699219 447.410156 97.777344 C 447.207031 99.847656 446.871094 101.863281 448.820312 101.902344 C 450.769531 101.945312 451.765625 101.527344 452.878906 101.527344 C 453.996094 101.527344 455.230469 102.722656 455.984375 103.5 C 455.984375 103.5 456.261719 105.492188 455.070312 105.015625 C 453.875 104.539062 453.972656 103.199219 452.820312 103.421875 C 451.667969 103.640625 451.648438 103.980469 450.929688 104.894531 C 450.214844 105.8125 449.914062 106.175781 448.742188 104.878906 C 447.566406 103.578125 446.769531 102.402344 444.621094 101.742188 C 442.476562 101.085938 442.273438 101.003906 442.3125 98.96875 C 442.351562 96.9375 442.710938 95.902344 440.644531 95.78125 C 438.574219 95.660156 434.59375 95.660156 433.597656 94.144531 C 432.601562 92.628906 432.601562 92.109375 430.414062 92.109375 C 428.222656 92.109375 426.390625 91.949219 425.558594 90.632812 C 424.722656 89.316406 423.410156 89.078125 422.09375 89.078125 C 420.785156 89.078125 419.707031 88.199219 420.582031 86.921875 C 421.457031 85.648438 421.417969 84.449219 420.464844 82.253906 C 419.507812 80.058594 418.992188 77.1875 418.832031 73.039062 " fill-opacity="1" fill-rule="evenodd"/><path fill="#8cd02f" d="M 451.703125 84.609375 C 451.703125 84.609375 450.234375 84.367188 448.125 84.648438 C 446.015625 84.929688 446.492188 84.25 446.890625 83.453125 C 447.289062 82.652344 449.953125 81.617188 453.257812 82.691406 C 456.5625 83.773438 461.140625 86.125 460.703125 87.601562 C 460.261719 89.078125 457.675781 87.761719 456.164062 87.71875 C 454.652344 87.679688 454.375 87.121094 453.816406 86.207031 C 453.257812 85.285156 452.460938 84.730469 451.703125 84.609375 " fill-opacity="1" fill-rule="evenodd"/><path fill="#8cd02f" d="M 462.25 90.554688 C 462.25 90.554688 463.167969 91.273438 464.242188 91.191406 C 465.316406 91.113281 465.554688 90.355469 466.628906 90.472656 C 467.703125 90.589844 469.453125 91.671875 469.65625 91.070312 C 469.855469 90.472656 469.417969 89.355469 468.539062 88.597656 C 467.664062 87.839844 466.273438 86.84375 465.394531 87.28125 C 464.519531 87.71875 461.375 89.835938 462.25 90.554688 " fill-opacity="1" fill-rule="evenodd"/><path fill="#8cd02f" d="M 465.761719 160.660156 C 465.761719 160.660156 460.429688 161.296875 462.578125 157.875 C 464.726562 154.457031 466.710938 154.296875 467.03125 150.402344 C 467.351562 146.507812 469.734375 145.394531 470.929688 143.5625 C 472.125 141.738281 471.007812 139.75 467.90625 138.320312 C 464.804688 136.886719 467.113281 135.21875 463.058594 134.980469 C 458.996094 134.742188 458.046875 133.46875 456.769531 131.003906 C 455.5 128.539062 456.359375 127.019531 455.207031 125.582031 C 454.269531 124.417969 454.191406 120.980469 452.492188 120.640625 C 452.066406 120.550781 451.421875 120.792969 450.988281 120.597656 C 448.679688 119.558594 450.332031 117.761719 451.746094 115.089844 C 453.160156 112.414062 454.074219 112.457031 455.507812 112.574219 C 456.941406 112.695312 455.527344 108.746094 455.167969 106.15625 C 455.015625 105.035156 455.058594 102.386719 455.816406 103.121094 C 456.871094 104.140625 457.054688 103.875 459.425781 100.648438 C 460.207031 99.589844 465.359375 97.714844 466.472656 98.570312 C 467.585938 99.429688 469.660156 101.929688 472.839844 101.644531 C 473.664062 101.570312 474.371094 101.144531 475.324219 100.808594 C 476.28125 100.46875 477.175781 100.007812 477.773438 101.605469 C 478.371094 103.199219 480.757812 103.800781 481.554688 104.71875 C 482.351562 105.632812 482.707031 106.910156 485.773438 107.390625 C 488.839844 107.871094 490.867188 108.546875 490.867188 110.582031 C 490.867188 112.617188 490.191406 115.050781 492.777344 115.609375 C 495.363281 116.164062 496.082031 116.246094 496.519531 117.445312 C 496.957031 118.640625 498.3125 118.480469 499.664062 118.601562 C 501.015625 118.722656 501.058594 119.121094 501.496094 119.71875 C 501.933594 120.316406 503.363281 120.234375 503.363281 121.671875 C 503.363281 123.109375 502.449219 126.382812 500.777344 128.535156 C 499.105469 130.691406 497.472656 133.402344 495.84375 136.15625 C 495.21875 137.207031 494.878906 138.304688 494.527344 139.285156 C 493.480469 132.292969 491.183594 122.980469 487.195312 114.527344 C 483.640625 128.910156 480.625 142.1875 475.796875 155.578125 C 475.699219 155.585938 475.605469 155.589844 475.503906 155.585938 C 474.113281 155.546875 473.515625 155.148438 473.394531 155.984375 C 473.277344 156.824219 473.4375 157.621094 471.367188 157.78125 C 469.296875 157.9375 467.027344 159.617188 465.761719 160.660156 " fill-opacity="1" fill-rule="evenodd"/><path fill="#53a037" d="M 488.796875 118.179688 C 489.730469 117.148438 490.632812 116.082031 491.503906 114.992188 C 491.796875 115.273438 492.210938 115.484375 492.777344 115.609375 C 495.363281 116.164062 496.082031 116.246094 496.519531 117.445312 C 496.957031 118.640625 498.3125 118.480469 499.664062 118.601562 C 501.015625 118.722656 501.058594 119.121094 501.496094 119.71875 C 501.933594 120.316406 503.363281 120.234375 503.363281 121.671875 C 503.363281 123.109375 502.449219 126.382812 500.777344 128.535156 C 499.105469 130.691406 497.472656 133.402344 495.84375 136.15625 C 495.21875 137.207031 494.878906 138.304688 494.527344 139.285156 C 493.628906 133.289062 491.8125 125.582031 488.796875 118.179688 Z M 465.761719 160.660156 C 465.761719 160.660156 460.429688 161.296875 462.578125 157.875 C 464.726562 154.457031 466.710938 154.296875 467.03125 150.402344 C 467.351562 146.507812 469.734375 145.394531 470.929688 143.5625 C 472.125 141.738281 471.007812 139.75 467.90625 138.320312 C 465.261719 137.097656 466.550781 135.703125 464.46875 135.171875 C 472.328125 132.007812 479.4375 127.375 485.457031 121.617188 C 482.585938 133.328125 479.824219 144.414062 475.796875 155.578125 C 475.699219 155.585938 475.605469 155.589844 475.503906 155.585938 C 474.113281 155.546875 473.515625 155.148438 473.394531 155.984375 C 473.277344 156.824219 473.4375 157.621094 471.367188 157.78125 C 469.296875 157.9375 467.027344 159.617188 465.761719 160.660156 " fill-opacity="1" fill-rule="evenodd"/><path fill="#ffffff" d="M 502.703125 77.074219 L 502.816406 77.269531 L 502.695312 77.097656 Z M 452.425781 48.128906 C 454.09375 48.128906 455.75 48.199219 457.382812 48.335938 C 457.859375 49.558594 458.332031 50.816406 458.804688 52.113281 C 457.285156 51.992188 455.746094 51.933594 454.199219 51.933594 C 432.242188 51.933594 413.070312 63.871094 402.820312 81.597656 C 402.398438 80.433594 401.996094 79.25 401.597656 78.050781 C 411.515625 60.207031 430.558594 48.128906 452.425781 48.128906 " fill-opacity="1" fill-rule="evenodd"/><path fill="#ffffff" d="M 474.089844 160.109375 C 467.394531 162.800781 460.085938 164.285156 452.425781 164.285156 C 430.488281 164.285156 411.386719 152.125 401.5 134.183594 C 411.707031 150.875 430.105469 162.015625 451.105469 162.015625 C 459.769531 162.015625 467.996094 160.113281 475.378906 156.714844 C 474.964844 157.847656 474.535156 158.976562 474.089844 160.109375 Z M 502.703125 77.074219 C 507.683594 85.640625 510.53125 95.589844 510.53125 106.207031 C 510.53125 118.96875 506.414062 130.765625 499.433594 140.347656 C 498.386719 140.410156 497.320312 140.460938 496.242188 140.511719 C 504.351562 130.523438 509.214844 117.796875 509.214844 103.933594 C 509.214844 94.277344 506.851562 85.167969 502.675781 77.15625 L 502.703125 77.074219 " fill-opacity="1" fill-rule="evenodd"/><path fill="#ffffff" d="M 487.195312 114.527344 C 481.953125 135.730469 477.886719 154.535156 467.449219 174.839844 C 484.738281 186.058594 499.265625 200.144531 513.738281 218.105469 C 513.121094 208.941406 511.898438 203.730469 508.421875 192.644531 C 517.605469 190.332031 532.550781 186.964844 542.195312 176.011719 C 541.746094 164.777344 540.539062 155.152344 558.832031 113.957031 C 552.984375 124.984375 539.539062 138.917969 494.710938 140.574219 C 493.761719 133.464844 491.433594 123.511719 487.195312 114.527344 " fill-opacity="1" fill-rule="evenodd"/><path fill="#66c430" d="M 473.273438 174.027344 C 491.398438 186.203125 504.222656 200.261719 513.921875 218.089844 C 513.304688 208.925781 512.078125 203.710938 508.597656 192.628906 C 515.773438 190.820312 526.664062 188.261719 535.59375 182.050781 C 537.191406 169.472656 533.621094 171.433594 535.488281 159.796875 C 537.644531 146.398438 541.628906 146.242188 544.527344 134.269531 C 533.847656 139.894531 518.421875 144.519531 491.984375 145.871094 C 491.316406 140.867188 490.492188 133.121094 488.277344 126.640625 C 484.878906 144.148438 477.285156 166.230469 473.273438 174.027344 " fill-opacity="1" fill-rule="evenodd"/><path fill="#ffffff" d="M 438.699219 75.445312 C 460.546875 75.023438 479.773438 74.078125 502.097656 78.902344 C 508.464844 59.304688 518.316406 41.632812 531.925781 23.015625 C 523.230469 25.980469 518.511719 28.511719 508.699219 34.738281 C 504.085938 26.46875 496.964844 12.910156 483.882812 6.433594 C 473.144531 9.773438 464.152344 13.429688 419.609375 6.433594 C 431.78125 9.222656 448.722656 18.597656 461.929688 61.453125 C 455.296875 64.210938 446.285156 69.03125 438.699219 75.445312 " fill-opacity="1" fill-rule="evenodd"/><path fill="#ffffff" d="M 429.910156 133.464844 C 418.621094 114.761719 408.191406 98.597656 401.207031 76.859375 C 381.046875 81.144531 360.808594 81.457031 337.867188 78.984375 C 344.785156 85.03125 349.335938 87.847656 359.640625 93.226562 C 354.785156 101.355469 346.59375 114.296875 347.527344 128.859375 C 355.789062 136.488281 363.449219 142.441406 379.660156 184.496094 C 375.992188 172.566406 375.644531 153.214844 406.175781 120.355469 C 411.875 124.714844 420.5625 130.109375 429.910156 133.464844 " fill-opacity="1" fill-rule="evenodd"/><path fill="#66c430" d="M 397.773438 81.46875 C 376.34375 85.671875 357.335938 84.792969 337.863281 79.042969 C 344.785156 85.085938 349.335938 87.910156 359.636719 93.285156 C 355.839844 99.636719 349.953125 109.140625 348.03125 119.847656 C 355.804688 129.867188 356.941406 125.957031 363.851562 135.503906 C 371.804688 146.503906 369.097656 149.433594 375.519531 159.945312 C 379.089844 148.417969 386.726562 134.246094 404.46875 114.605469 C 408.476562 117.671875 414.542969 122.5625 420.691406 125.582031 C 410.707031 110.800781 400.457031 89.820312 397.773438 81.46875 " fill-opacity="1" fill-rule="evenodd"/><path fill="#66c430" d="M 499.871094 73.65625 C 506.945312 53.007812 517.210938 36.988281 531.925781 23.015625 C 523.230469 25.980469 518.511719 28.511719 508.699219 34.738281 C 505.097656 28.277344 499.804688 18.429688 491.488281 11.410156 C 478.917969 13.128906 481.742188 16.070312 470.011719 17.273438 C 456.503906 18.664062 455.320312 14.855469 443.003906 15.15625 C 451.203125 24.011719 459.664062 37.707031 467.8125 62.882812 C 463.152344 64.824219 455.878906 67.625 450.1875 71.4375 C 467.988281 70.1875 491.289062 71.800781 499.871094 73.65625 " fill-opacity="1" fill-rule="evenodd"/><path fill="#0d0d0d" d="M 473.53125 161.511719 C 466.898438 164.070312 459.699219 165.476562 452.1875 165.476562 C 427.832031 165.476562 407.039062 150.726562 398.015625 129.695312 C 398.472656 129.136719 398.9375 128.574219 399.414062 128.003906 C 408.054688 148.660156 428.542969 163.335938 452.1875 163.335938 C 460.140625 163.335938 467.730469 161.671875 474.640625 158.683594 C 474.285156 159.625 473.914062 160.566406 473.53125 161.511719 Z M 503.117188 75.863281 C 508.527344 84.683594 511.644531 95.054688 511.644531 106.210938 C 511.644531 118.871094 507.625 130.625 500.796875 140.265625 C 499.824219 140.328125 498.824219 140.382812 497.816406 140.4375 C 505.039062 130.871094 509.34375 119 509.34375 106.210938 C 509.34375 96.253906 506.734375 86.855469 502.171875 78.671875 C 502.480469 77.726562 502.796875 76.796875 503.117188 75.863281 Z M 452.1875 47.574219 C 453.863281 47.574219 455.523438 47.644531 457.164062 47.78125 C 457.367188 48.296875 457.574219 48.824219 457.777344 49.359375 C 455.9375 49.175781 454.074219 49.082031 452.1875 49.082031 C 430.621094 49.082031 411.675781 61.289062 401.953125 79.113281 C 401.699219 78.371094 401.453125 77.617188 401.207031 76.859375 L 400.984375 76.90625 C 411.136719 59.296875 430.210938 47.574219 452.1875 47.574219 " fill-opacity="1" fill-rule="nonzero"/><path fill="#0d0d0d" d="M 454.886719 103.894531 C 456.320312 105.59375 456.042969 109.410156 456.429688 111.910156 C 456.722656 113.835938 455.695312 113.742188 454.6875 113.15625 C 453.75 112.617188 453.167969 113.925781 452.738281 114.515625 C 447.605469 121.488281 452.792969 118.855469 452.382812 120.722656 C 452.160156 121.742188 448.375 121.871094 449.742188 123.417969 L 449.570312 123.285156 C 458.144531 130.09375 449.285156 131.609375 461.03125 138.601562 C 467.351562 142.367188 464.46875 147.449219 461.121094 152.832031 C 460.667969 154.378906 460.777344 156.046875 460.210938 157.128906 C 459.539062 158.410156 458.527344 159.042969 457.667969 160.296875 C 457.074219 161.15625 456.355469 162.789062 455.621094 163.792969 C 455.515625 163.9375 453.96875 164.449219 453.863281 164.550781 C 454.261719 163.738281 456.457031 159.679688 456.640625 159.464844 C 457.964844 157.929688 458.59375 158.054688 459.027344 157.285156 C 460.199219 155.191406 458.628906 154.195312 460.007812 151.75 C 461.449219 149.207031 461.96875 148.207031 462.511719 146.59375 C 463.625 143.296875 463.242188 141.527344 462.195312 140.570312 C 459.9375 138.515625 454.5 138.976562 452.667969 130.078125 C 451.582031 124.804688 444.914062 123.167969 449.902344 120.675781 C 448.074219 118.53125 450.664062 117.144531 451.660156 114.113281 C 453.0625 109.855469 455.628906 113.191406 455.460938 111.671875 C 455.132812 108.75 455.023438 106.789062 454.25 105.195312 C 453.847656 104.367188 452.195312 103 451.664062 104.542969 C 450.058594 109.152344 447.523438 103.121094 445.253906 102.574219 C 436.863281 100.546875 446.554688 96.265625 438.125 96.101562 C 430.777344 95.953125 434.023438 92.851562 431.332031 92.917969 C 423.550781 93.113281 426.140625 90.867188 424.246094 90.457031 C 415.652344 88.605469 421.550781 87.105469 420.097656 83.359375 C 417.722656 77.226562 418.535156 72.921875 417.511719 72.550781 C 416.390625 73.945312 417.5 79.109375 416.804688 81.902344 C 416.316406 83.867188 415.367188 82.230469 414.589844 81.511719 C 410.53125 77.773438 414.90625 72.332031 413.667969 70.898438 C 408.65625 65.109375 420.335938 62.351562 421.148438 57.3125 C 421.1875 57.070312 421.875 56.484375 421.863281 56.234375 C 423.933594 61.480469 410.308594 65.253906 414.464844 70.238281 C 416.25 72.371094 412.074219 75.878906 415.652344 80.734375 C 415.53125 76.707031 415.605469 68.015625 418.816406 71.484375 C 420.746094 73.566406 418.675781 77 421.683594 83.140625 C 424.238281 88.347656 416.492188 87.582031 424.613281 88.972656 C 427.375 89.445312 424.175781 91.378906 431.449219 91.828125 C 435.585938 92.082031 431.722656 94.542969 438.871094 94.875 C 448.050781 95.300781 438.78125 99.707031 445.695312 101.703125 C 449.867188 102.914062 449.054688 108.226562 451.539062 103.132812 C 451.949219 102.296875 454.328125 103.230469 454.886719 103.894531 " fill-opacity="1" fill-rule="evenodd"/><path fill="#0d0d0d" d="M 441.96875 75.378906 L 440.886719 75.402344 C 441.511719 75.574219 441.867188 75.671875 441.96875 75.378906 Z M 458.597656 51.554688 C 456.976562 50.863281 455.726562 49.339844 456.203125 53.09375 C 456.449219 54.976562 451.101562 57.941406 450.613281 52.585938 C 450.53125 52.238281 447.253906 52.425781 445.351562 52.074219 C 444.175781 51.855469 443.652344 51.363281 443.742188 50.949219 C 444.050781 49.539062 447.726562 48.523438 450.40625 48.835938 C 447.21875 49.589844 446.371094 49.996094 445.457031 50.425781 C 444.554688 50.851562 443.867188 51.128906 445.496094 51.535156 C 447.542969 52.054688 451.527344 51.25 451.6875 52.167969 C 452.375 56.054688 455.054688 54.128906 455.199219 52.984375 C 455.394531 51.484375 454.332031 49.203125 457.421875 50.125 C 457.683594 50.203125 457.925781 50.300781 458.171875 50.394531 C 458.3125 50.777344 458.457031 51.167969 458.597656 51.554688 Z M 455.28125 64.550781 C 455.289062 62.972656 457.136719 63.03125 459.09375 62.695312 C 457.871094 63.257812 456.59375 63.875 455.28125 64.550781 Z M 449.382812 75.21875 L 448.082031 75.25 C 448.589844 81.175781 454.003906 83.394531 451.75 75.175781 L 450.867188 75.191406 C 451.296875 76.460938 451.648438 77.882812 451.152344 79.421875 C 449.488281 78.464844 449.433594 77.34375 449.394531 75.488281 C 449.390625 75.394531 449.386719 75.304688 449.382812 75.21875 Z M 440.839844 73.703125 C 441.46875 73.214844 442.105469 72.734375 442.742188 72.265625 C 441.960938 72.128906 441.277344 72.316406 440.976562 73.027344 C 440.875 73.269531 440.851562 73.5 440.839844 73.703125 Z M 475.53125 156.304688 C 474.960938 156.160156 474.441406 155.871094 473.953125 155.925781 C 473.8125 159.515625 471.546875 156.613281 466.570312 161.003906 C 465.335938 162.09375 458.71875 163.929688 457.863281 164.304688 C 459.265625 163.460938 461.289062 162.117188 462.660156 161.324219 C 463.132812 160.644531 464.851562 160.792969 466.0625 159.648438 C 469.332031 156.554688 472.828125 157.40625 472.785156 156.203125 C 472.191406 154.191406 474.429688 154.945312 475.484375 155.0625 C 475.609375 155.078125 475.800781 155.011719 476.039062 154.894531 C 475.871094 155.363281 475.703125 155.835938 475.53125 156.304688 Z M 454.09375 101.128906 C 455.863281 101.972656 455.980469 104.710938 458.097656 101.925781 C 458.433594 101.476562 458.703125 100.757812 459.347656 100.054688 C 460.265625 99.046875 465.742188 97.429688 466.335938 97.742188 C 467.09375 98.144531 467.089844 98.21875 468.292969 99.476562 C 474.710938 104.046875 475.773438 96.558594 478.25 101.328125 C 479.265625 103.28125 478.550781 102.410156 480.453125 103.304688 C 483.167969 104.585938 480.351562 105.882812 487.832031 107.101562 C 494.914062 108.261719 488.304688 114.289062 494.042969 115.246094 C 495.433594 115.476562 496.351562 116.007812 496.546875 116.378906 C 497.507812 118.234375 497.757812 117.429688 500.003906 117.878906 C 500.40625 117.957031 500.800781 118.066406 501.171875 118.210938 C 501.851562 118.472656 501.410156 119.085938 501.890625 119.558594 C 502.394531 120.058594 503.78125 119.816406 503.957031 120.558594 C 504.082031 121.066406 504.222656 121.878906 504.066406 122.871094 C 502.902344 130.136719 498.082031 130.75 495.695312 138.289062 C 495.402344 139.21875 495.132812 139.964844 494.871094 140.566406 L 494.710938 140.574219 C 494.601562 139.769531 494.476562 138.921875 494.332031 138.050781 L 494.390625 137.925781 C 497.09375 131.90625 503.289062 126.054688 502.402344 121 C 501.378906 120.816406 501.015625 120.507812 500.613281 119.636719 C 499.410156 119.277344 499.222656 119.203125 498.566406 119.140625 C 494.464844 118.730469 497.402344 116.871094 494.515625 116.746094 C 485.675781 116.355469 493.910156 109.558594 487.972656 108.5 C 479.15625 106.929688 484.609375 106.410156 479.558594 104.28125 C 477.359375 103.355469 477.222656 102.546875 477.09375 101.984375 C 476.644531 100.085938 475.867188 101.296875 475.382812 101.558594 C 470.132812 104.402344 467.53125 99.25 465.960938 98.910156 C 464.902344 98.683594 460.632812 100.300781 460.113281 100.84375 C 458.820312 102.195312 457.832031 104.160156 457.382812 104.621094 C 456.726562 105.308594 456.1875 103.925781 454.667969 102.792969 C 452.664062 101.300781 452.105469 102.246094 449.867188 102.355469 C 447.675781 102.464844 445.800781 101.539062 447.183594 95.746094 C 449.292969 86.898438 435.277344 97.726562 439.519531 90.152344 C 439.902344 89.464844 441.304688 87.5 441.898438 85.78125 C 442.324219 84.558594 442.589844 83.992188 441 84.15625 C 439.453125 84.3125 438.550781 85.609375 438.195312 87.191406 C 437.980469 88.152344 436.714844 88.738281 435.4375 88.890625 C 433.335938 89.136719 433.136719 90.363281 431.804688 89.351562 C 429.445312 87.550781 429.179688 86.347656 428.695312 84.78125 C 427.242188 80.09375 430.269531 80.832031 430.996094 76.644531 C 431.515625 73.640625 435.789062 72.878906 438.972656 74.046875 C 439.410156 74.207031 439.742188 74.3125 439.996094 74.375 C 439.726562 74.59375 439.453125 74.816406 439.1875 75.039062 C 436.566406 74.695312 432.835938 74.613281 432.414062 76.882812 C 431.589844 81.347656 426.726562 82.914062 431.15625 86.949219 C 433.511719 89.089844 433.058594 88.457031 434.738281 87.839844 C 440.523438 85.707031 435.449219 85.664062 438.925781 84.070312 C 446.941406 80.394531 442.90625 86.320312 440.347656 90.242188 C 439.292969 91.851562 439.65625 92.214844 441.429688 91.816406 C 445.617188 90.875 449.6875 89.566406 448.410156 95.316406 C 447.765625 98.234375 447.144531 100.359375 447.804688 101.097656 C 449.257812 102.726562 452.070312 100.164062 454.09375 101.128906 " fill-opacity="1" fill-rule="evenodd"/><path fill="#0d0d0d" d="M 447.746094 84.332031 C 449.191406 84.316406 451.714844 82.453125 453.957031 85.628906 C 454.800781 86.820312 454.554688 87.207031 456.261719 87.316406 C 457.273438 87.382812 461.375 88.183594 459.96875 86.609375 C 458.5 84.964844 450.957031 81.292969 447.523438 83.273438 C 446.984375 83.585938 446.53125 84.347656 447.746094 84.332031 Z M 446.914062 82.878906 C 449.667969 79.5625 457.761719 83.398438 460.601562 86.253906 C 462.554688 88.214844 461.667969 89.351562 454.582031 87.851562 C 452.09375 87.324219 455.726562 84.152344 447.21875 85.03125 C 446.71875 85.082031 446.238281 84.910156 446.183594 84.542969 C 446.109375 84.042969 446.59375 83.261719 446.914062 82.878906 " fill-opacity="1" fill-rule="evenodd"/><path fill="#0d0d0d" d="M 465.148438 90.609375 C 466.304688 89.457031 467.851562 90.199219 468.730469 90.527344 C 469.375 90.765625 469.675781 90.679688 469.125 89.960938 C 466.265625 86.207031 464.453125 88.042969 462.851562 89.488281 C 462.003906 90.253906 462.355469 90.367188 462.839844 90.519531 C 463.765625 90.808594 464.714844 91.035156 465.148438 90.609375 Z M 465.195312 91.46875 C 464.390625 91.976562 462.792969 91.480469 462.160156 91.046875 C 461.089844 90.308594 461.960938 89.3125 463.480469 87.800781 C 467.714844 83.574219 473.238281 93.871094 467.769531 91.367188 C 466.398438 90.738281 466.277344 90.777344 465.195312 91.46875 " fill-opacity="1" fill-rule="evenodd"/><path fill="#0d0d0d" d="M 454.683594 89.351562 C 454.683594 89.351562 456.902344 89.042969 458.066406 90.058594 C 459.238281 91.074219 456.5625 90.980469 455.914062 90.644531 C 455.269531 90.304688 453.636719 89.472656 454.683594 89.351562 " fill-opacity="1" fill-rule="evenodd"/><path fill="#0d0d0d" d="M 472.484375 89.707031 C 472.484375 89.707031 470.730469 88.964844 470.730469 89.765625 C 470.730469 90.566406 471.6875 90.75 472.636719 90.539062 C 473.59375 90.320312 473.191406 89.921875 472.484375 89.707031 " fill-opacity="1" fill-rule="evenodd"/><path fill="#0d0d0d" d="M 477.4375 92.597656 C 477.4375 92.597656 477.039062 93.148438 477.59375 93.210938 C 478.144531 93.273438 477.929688 91.675781 477.4375 92.597656 " fill-opacity="1" fill-rule="evenodd"/><path fill="#0d0d0d" d="M 477.898438 93.796875 C 477.898438 93.796875 477.777344 94.535156 478.300781 94.503906 C 478.824219 94.472656 477.898438 92.871094 477.898438 93.796875 " fill-opacity="1" fill-rule="evenodd"/><path fill="#0d0d0d" d="M 478.421875 95.394531 C 478.421875 95.394531 478.667969 95.949219 478.886719 95.640625 C 479.101562 95.332031 478.394531 94.253906 478.421875 95.394531 " fill-opacity="1" fill-rule="evenodd"/><path fill="#0d0d0d" d="M 478.640625 96.566406 C 478.640625 96.566406 479.039062 96.566406 479.039062 96.226562 C 479.039062 95.886719 478.722656 96.003906 478.628906 96.25 C 478.539062 96.496094 478.476562 96.621094 478.640625 96.566406 " fill-opacity="1" fill-rule="evenodd"/><path fill="#0d0d0d" d="M 479.324219 100.617188 C 479.324219 100.617188 478.648438 100.648438 478.769531 101.261719 C 478.894531 101.878906 478.953125 102.277344 479.664062 101.9375 C 480.371094 101.597656 480.214844 100.335938 479.324219 100.617188 " fill-opacity="1" fill-rule="evenodd"/><path fill="#0d0d0d" d="M 434.976562 116.816406 C 434.976562 116.816406 435.605469 116.015625 435.300781 115.617188 C 434.992188 115.21875 434.671875 115.507812 434.578125 115.710938 C 434.484375 115.90625 434.5625 117.460938 434.976562 116.816406 " fill-opacity="1" fill-rule="evenodd"/><path fill="#0d0d0d" d="M 391.3125 139.199219 C 395.9375 142.613281 402.136719 143.546875 407.890625 143.910156 C 408.320312 144.414062 408.773438 144.933594 409.261719 145.472656 C 401.726562 144.984375 395.007812 143.691406 390.425781 140.894531 C 390.796875 140.007812 390.976562 139.714844 391.3125 139.199219 " fill-opacity="1" fill-rule="nonzero"/><path fill="#0d0d0d" d="M 380.582031 183.730469 C 381.417969 185.914062 389.941406 197.511719 441.613281 193.886719 C 434.707031 186.34375 427.699219 175.589844 424.917969 166.128906 C 425.875 163.84375 427.089844 161.621094 428.472656 159.480469 C 429.03125 159.730469 429.597656 159.976562 430.171875 160.214844 C 429.039062 162.101562 428.023438 164.089844 427.15625 166.222656 C 430.242188 177.703125 437.300781 186.441406 444.660156 195.480469 C 439.292969 195.886719 389.058594 199.53125 379.597656 186.292969 C 379.269531 185.835938 378.941406 185.359375 378.699219 184.851562 C 378.613281 184.605469 378.523438 184.359375 378.4375 184.109375 C 378.511719 182.019531 378.734375 179.410156 378.9375 177.394531 C 379.339844 179.695312 379.890625 181.835938 380.582031 183.730469 " fill-opacity="1" fill-rule="nonzero"/><path fill="#0d0d0d" d="M 439.980469 49.589844 C 443.929688 43.992188 448.125 39.492188 452.523438 37.285156 C 452.996094 37.941406 453.0625 39.15625 452.980469 39.191406 C 448.472656 41.175781 444.960938 45.058594 442.046875 49.148438 C 441.386719 49.273438 440.699219 49.421875 439.980469 49.589844 " fill-opacity="1" fill-rule="nonzero"/><g clip-path="url(#87a4749dac)"><path fill="#0d0d0d" d="M 419.8125 7.613281 C 417.5 7.246094 403.191406 8.824219 380.496094 55.363281 C 390.484375 53.160156 403.308594 52.46875 412.894531 54.792969 C 414.214844 56.523438 415.390625 58.402344 416.445312 60.371094 C 415.898438 60.777344 415.402344 61.167969 414.953125 61.527344 C 413.996094 59.871094 412.917969 58.253906 411.699219 56.683594 C 400.203125 53.613281 389.101562 55.355469 377.59375 57.207031 C 379.921875 52.351562 401.886719 7.054688 418.082031 5.480469 C 418.640625 5.425781 419.222656 5.382812 419.785156 5.425781 C 421.101562 5.652344 422.457031 5.96875 423.84375 6.363281 C 423.84375 7.554688 429.925781 10.441406 423.863281 8.597656 C 422.46875 8.171875 421.109375 7.839844 419.8125 7.613281 " fill-opacity="1" fill-rule="nonzero"/></g><path fill="#0d0d0d" d="M 509.195312 119.40625 C 514.703125 125.476562 519.011719 131.578125 520.371094 137.164062 L 518.527344 137.65625 C 517.578125 131.5625 513.34375 126.210938 509.25 121.695312 C 509.074219 121.5 509.175781 119.699219 509.195312 119.40625 " fill-opacity="1" fill-rule="nonzero"/><path fill="#0d0d0d" d="M 557.636719 113.851562 C 558.59375 111.714844 560.769531 97.492188 521.667969 63.535156 C 521.214844 73.746094 518.5625 86.308594 513.835938 94.960938 C 512.464844 95.523438 511.050781 96.003906 509.597656 96.410156 C 509.507812 95.707031 509.40625 95.050781 509.308594 94.449219 C 510.316406 94.113281 511.320312 93.738281 512.320312 93.316406 C 518.261719 83.015625 519.453125 71.847656 520.636719 60.253906 C 524.726562 63.757812 562.820312 96.6875 560.148438 112.734375 C 560.054688 113.289062 559.949219 113.855469 559.761719 114.386719 C 559.691406 114.539062 559.617188 114.691406 559.546875 114.84375 L 556.582031 116.058594 C 556.972656 115.359375 557.320312 114.535156 557.636719 113.851562 " fill-opacity="1" fill-rule="nonzero"/><g clip-path="url(#6fbfff2653)"><path fill="#0d0d0d" d="M 486.800781 112.542969 C 491.460938 120.570312 493.449219 129.546875 495.34375 139.515625 C 520.019531 137.738281 547.566406 134.804688 557.925781 113.480469 L 559.765625 114.371094 C 551.140625 132.570312 540.867188 158.332031 543.246094 176.398438 C 530.078125 187.824219 521.964844 191.003906 509.230469 193.214844 C 512.066406 200.75 514.519531 210.0625 514.222656 219.832031 C 500.605469 202.933594 485.1875 187.394531 466.453125 175.046875 C 476.0625 156.1875 481.914062 134.398438 486.800781 112.542969 Z M 487.304688 115.789062 C 482.03125 142.816406 476.242188 160.8125 468.578125 174.714844 C 480.03125 180.972656 496.796875 196.109375 512.941406 215.855469 C 512.476562 207.484375 509.738281 199.871094 506.875 192.046875 C 519.886719 189.230469 533.398438 184.96875 541.820312 175.875 C 540.527344 168.640625 539.355469 155.714844 555.75 119.726562 C 544.195312 136.800781 514.3125 141.125 493.816406 141.648438 C 492.726562 133.433594 490.535156 123.433594 487.304688 115.789062 " fill-opacity="1" fill-rule="nonzero"/></g><g clip-path="url(#a9c16f946e)"><path fill="#0d0d0d" d="M 431.59375 134.589844 C 422.625 132.203125 414.863281 127.265625 406.476562 121.550781 C 390.285156 140.25 372.878906 161.792969 380.640625 184.195312 L 378.707031 184.863281 C 371.933594 165.902344 360.96875 140.425781 346.507812 129.328125 C 347.738281 111.941406 351.222656 103.960938 358.664062 93.394531 C 351.328125 90.074219 343.007812 85.222656 336.300781 78.109375 C 357.886719 80.433594 379.78125 80.523438 401.765625 76.015625 C 408.3125 96.136719 419.589844 115.679688 431.59375 134.589844 Z M 428.941406 132.648438 C 413.550781 109.8125 404.914062 92.992188 400.496094 77.746094 C 387.972656 81.417969 365.40625 82.5625 340.019531 80.011719 C 346.277344 85.597656 353.59375 89.050781 361.160156 92.558594 C 353.945312 103.746094 347.410156 116.3125 347.886719 128.695312 C 353.921875 132.894531 363.890625 141.203125 377.757812 178.238281 C 373.851562 158.003906 391.921875 133.824219 406.042969 118.96875 C 412.628906 124.003906 421.25 129.527344 428.941406 132.648438 " fill-opacity="1" fill-rule="nonzero"/></g><g clip-path="url(#ef58c2b817)"><path fill="#0d0d0d" d="M 436.886719 76.339844 C 443.433594 69.765625 451.597656 65.519531 460.738281 61.117188 C 452.632812 37.75 442.671875 11.917969 419.378906 7.433594 L 419.765625 5.425781 C 439.585938 9.042969 467.140625 12.289062 483.984375 5.316406 C 498.4375 15.074219 503.605469 22.085938 509.039062 33.808594 C 515.589844 29.117188 523.949219 24.34375 533.46875 22.097656 C 520.664062 39.617188 509.632812 58.527344 502.550781 79.808594 C 481.84375 75.414062 459.269531 75.40625 436.886719 76.339844 Z M 439.890625 75.015625 C 467.375 73.113281 486.265625 74.042969 501.683594 77.84375 C 504.765625 65.171875 515.054688 45.066406 529.957031 24.363281 C 521.992188 26.980469 515.339844 31.59375 508.519531 36.386719 C 502.429688 24.550781 494.816406 12.609375 483.847656 6.832031 C 477.1875 9.953125 465.003906 14.429688 425.980469 7.917969 C 445.46875 14.652344 457.382812 42.382812 463.195312 62.035156 C 455.535156 65.214844 446.441406 69.921875 439.890625 75.015625 " fill-opacity="1" fill-rule="nonzero"/></g></svg>